<?xml version="1.0" standalone="no"?>
<!DOCTYPE svg PUBLIC "-//W3C//DTD SVG 20010904//EN"
 "http://www.w3.org/TR/2001/REC-SVG-20010904/DTD/svg10.dtd">
<svg version="1.0" xmlns="http://www.w3.org/2000/svg"
 width="228.000000pt" height="228.000000pt" viewBox="0 0 228.000000 228.000000"
 preserveAspectRatio="xMidYMid meet">
<metadata>
Created by potrace 1.11, written by Peter Selinger 2001-2013
</metadata>
<g transform="translate(0.000000,228.000000) scale(0.100000,-0.100000)"
fill="#000000" stroke="none">
<path d="M0 1140 l0 -1140 1140 0 1140 0 0 1140 0 1140 -1140 0 -1139 0 -1
-1140z m1056 895 c81 -15 202 -52 243 -74 21 -12 21 -17 19 -199 -3 -167 -5
-187 -20 -190 -10 -2 -54 19 -99 47 -45 28 -119 63 -163 78 -72 25 -95 28
-206 28 -111 0 -130 -3 -167 -23 -56 -30 -77 -62 -69 -107 12 -63 59 -85 288
-135 221 -48 334 -100 411 -190 80 -94 111 -271 68 -398 -43 -127 -120 -213
-251 -281 -45 -24 -84 -49 -87 -57 -3 -8 -19 -13 -41 -12 -21 0 -77 -7 -127
-16 -205 -37 -512 0 -703 84 l-42 19 0 200 c0 196 1 201 20 201 12 0 44 -18
73 -40 159 -120 424 -180 589 -134 78 22 108 51 108 104 0 76 -35 93 -308 155
-315 71 -443 180 -473 403 -31 233 106 424 369 512 48 16 116 33 152 39 86 13
315 6 416 -14z m155 -618 c-18 -18 -37 7 -20 26 12 13 15 13 23 0 5 -9 4 -19
-3 -26z m-219 -1111 c4 -19 -1 -27 -21 -36 -21 -10 -27 -9 -37 5 -16 21 -9 40
19 52 27 13 33 10 39 -21z"/>
</g>
</svg>
